<svg width="396" height="225.7974910721981" viewBox="0 0 350 199.5684895840135" class="css-1j8o68f">
<defs id="SvgjsDefs1201"></defs>
<g id="SvgjsG1202" featurekey="symbolFeature-0" transform="matrix(1.5654329345861746,0,0,1.5654329345861746,96.78821461062094,-8.453338742513253)" fill="#35d0ba">
    <path xmlns="http://www.w3.org/2000/svg" d="M75.5,46.6C57.9,49.5,48.8,56.9,50.2,87l1.6-0.3c0.1-5.5,0.4-5.1,3-6C69,75.8,77.1,62.9,75.5,46.6z M52.9,79.4l-0.2-1  c2-17.7,9.3-24.3,15.7-25.6C61.5,55.5,56.3,65.3,52.9,79.4z M23.6,53.3c0,0,4.7,31.3,25.7,26.5C49.3,48.2,23.6,53.3,23.6,53.3z   M31.1,61.1c4,11.1,15.1,15.1,15.2,15.1l0.7,2C46.5,78,32.2,71.4,31.1,61.1z M49.3,94.6c-12.8,0-24-4.9-30.9-13.4  c-6.8-8.5-8.9-20.1-5.9-33.6c1.6-7.2,1.9-11,1.9-12.2c-2.7-0.5-5-4.1-5.3-5L9,30l0.4-0.2c0.8-0.5,1-2.7,1-4.1c-0.1,0-0.2,0-0.3,0  c-1.7,0-4.1,0.7-4.1,0.7l-0.7,0.2v-0.7c-0.3-2.6,0.7-4,1.6-4.7c-1.1-0.5-1.3-1.4-1.4-1.9c-0.1-1.2,0.6-2.4,1.4-3  c-0.1-0.9-0.3-2.8,0.8-4.3c0.6-0.9,1.5-1.4,2.6-1.6c0.4-1.7,1.5-2.8,3-2.8c0.6,0,1.2,0.2,1.8,0.5c0.7-1.6,2.2-2.7,3.7-2.7  c0.8,0,1.6,0.3,2.2,0.9s1.3,1.9,1.3,4.2c0.1,1.1,0,2.8-0.7,4.3c8.5-0.2,11.9,8,15.3,16c0.5,1.1,0.9,2.2,1.4,3.3  c2.1,4.8,7.3,8,13.2,8c6,0,11.3-3.2,14.1-8.6C74.8,16,82,14.1,84.6,14.1c1.7,0,3,0.7,3.8,1.9s1,2.9,0.5,4.6c1.5-0.3,2.8,0.3,3.5,1.6  c0.9,1.6,0.6,3.9-0.6,6.2c1.1,0.1,1.8,0.5,2.2,1.2c0.9,1.9-1,5.3-2.1,6.9c1.1,0.2,1.9,0.7,2.4,1.5c1.3,2.5-1.1,6.9-2,8.4  c0.6,0.4,1.5,1.3,1.9,2.9c0.7,2.6-0.5,6-3.4,9.9c-0.8,11-5.7,20.1-14.1,26.5C69.2,91.4,59.5,94.6,49.3,94.6z M10.3,30.3  c0.6,1.2,2.7,3.9,4.6,3.9h0.5l0.1,0.5c0,0.1,0.1,3.7-1.9,13c-2.9,13.1-0.9,24.4,5.7,32.6c6.6,8.3,17.6,13,30,13  c25.9,0,39.2-17.8,40.5-34.3v-0.2l0.1-0.1c2.7-3.7,3.8-6.8,3.3-9.1c-0.4-1.8-1.8-2.4-1.8-2.4l-0.6-0.3l0.4-0.5  c1-1.5,3.3-5.9,2.3-7.8c-0.4-0.7-1.2-1-2.4-1H90l0.7-0.9c1.3-1.8,3.2-5.2,2.5-6.5c-0.3-0.5-1-0.7-2.1-0.6l-1.2,0.1l0.7-1  c1.7-2.6,1.7-4.7,1.1-5.9c-0.6-1.1-1.8-1.4-3.2-0.8L87,22.9l0.6-1.4c0.8-1.7,0.7-3.5,0-4.7c-0.6-0.9-1.6-1.4-2.9-1.4  c-1.9,0-8.8,1.4-18,18.8c-3,5.7-8.7,9.2-15.1,9.2c-6.3,0-11.9-3.4-14.2-8.6c-0.5-1.1-0.9-2.2-1.4-3.3C32.6,23.4,29.5,16,22,16  c-0.5,0-0.9,0-1.4,0.1L19,16.3l1.2-1.2c1.1-1.1,1.2-3.3,1.1-4.5c0-2-0.5-3-1-3.5c-0.4-0.4-0.8-0.6-1.3-0.6c-1.2,0-2.4,1.1-2.9,2.6  l-0.2,0.8l-0.6-0.5C14.6,9,14,8.7,13.4,8.7c-1,0-1.8,0.8-2,2.2l-0.1,0.4l-0.4,0.1c-1,0.1-1.8,0.5-2.3,1.2c-1,1.5-0.5,3.8-0.5,3.8  L8.3,17l-0.5,0.2c-0.4,0.1-1.2,1.1-1.1,2c0.1,0.7,0.7,1.1,1.8,1.3l2.8,0.4l-2.7,0.7c-0.1,0-2.1,0.6-2.2,3.3c1.2-0.3,3.5-0.7,4.7-0.5  l0.4,0.1v0.4C11.5,25.4,11.7,28.9,10.3,30.3z"></path>
</g>
</svg>
